<svg width="19" height="10" viewBox="0 0 19 10" fill="none" xmlns="http://www.w3.org/2000/svg">
<path d="M1.57968 0.559585L8.89999 7.76427C9.05971 7.92229 9.27531 8.01092 9.49999 8.01092C9.72466 8.01092 9.94027 7.92229 10.1 7.76427L17.4203 0.561148C17.581 0.403217 17.7973 0.314723 18.0226 0.314723C18.248 0.314723 18.4643 0.403217 18.625 0.561148C18.7041 0.6383 18.767 0.730512 18.81 0.832351C18.8529 0.93419 18.875 1.04359 18.875 1.15412C18.875 1.26464 18.8529 1.37404 18.81 1.47588C18.767 1.57772 18.7041 1.66993 18.625 1.74709L11.3062 8.95021C10.8242 9.42353 10.1756 9.68872 9.49999 9.68872C8.8244 9.68872 8.1758 9.42353 7.69374 8.95021L0.374991 1.74709C0.295613 1.66991 0.232516 1.5776 0.18943 1.47562C0.146345 1.37363 0.124146 1.26405 0.124146 1.15334C0.124146 1.04262 0.146345 0.933038 0.18943 0.831054C0.232516 0.729071 0.295613 0.636761 0.374991 0.559585C0.535702 0.401654 0.752012 0.31316 0.977334 0.31316C1.20266 0.31316 1.41897 0.401654 1.57968 0.559585Z" fill="#222222"/>
</svg>
