<svg width="353" height="92" viewBox="0 0 353 92" fill="none" xmlns="http://www.w3.org/2000/svg">
<path d="M350 1H350.5V0.5H350V1ZM350 92L352.887 87H347.113L350 92ZM0 1.5H10.9375V0.5H0V1.5ZM32.8125 1.5H54.6875V0.5H32.8125V1.5ZM76.5625 1.5H98.4375V0.5H76.5625V1.5ZM120.312 1.5H142.188V0.5H120.312V1.5ZM164.062 1.5H185.938V0.5H164.062V1.5ZM207.812 1.5H229.688V0.5H207.812V1.5ZM251.562 1.5H273.438V0.5H251.562V1.5ZM295.312 1.5H317.188V0.5H295.312V1.5ZM339.062 1.5H350V0.5H339.062V1.5ZM349.5 1V12.375H350.5V1H349.5ZM349.5 35.125V57.875H350.5V35.125H349.5ZM349.5 80.625V87.5H350.5V80.625H349.5Z" fill="white"/>
</svg>
