<svg width="353" height="92" viewBox="0 0 353 92" fill="none" xmlns="http://www.w3.org/2000/svg">
<path d="M3 1H2.5V0.5H3V1ZM3 92L0.113251 87H5.88675L3 92ZM353 1.5H342.062V0.5H353V1.5ZM320.188 1.5H298.312V0.5H320.188V1.5ZM276.438 1.5H254.562V0.5H276.438V1.5ZM232.688 1.5H210.812V0.5H232.688V1.5ZM188.938 1.5H167.062V0.5H188.938V1.5ZM145.188 1.5H123.312V0.5H145.188V1.5ZM101.438 1.5H79.5625V0.5H101.438V1.5ZM57.6875 1.5H35.8125V0.5H57.6875V1.5ZM13.9375 1.5H3V0.5H13.9375V1.5ZM3.5 1V12.375H2.5V1H3.5ZM3.5 35.125V57.875H2.5V35.125H3.5ZM3.5 80.625V87.5H2.5V80.625H3.5Z" fill="white"/>
</svg>
