<svg width="121" height="119" viewBox="0 0 121 119" fill="none" xmlns="http://www.w3.org/2000/svg">
<g clip-path="url(#clip0_938_636)">
<path d="M39.8305 14.1003C29.5671 19.9989 20.6525 25.0807 17.0022 27.2248C15.856 27.898 15.5504 28.9857 16.1943 30.1487C16.9341 31.4846 18.0405 33.4261 19.2853 35.5605C21.7582 39.8061 23.3602 42.7036 23.2513 42.7346C23.0802 42.7811 16.4859 41.6655 14.153 41.2161C14.1376 41.2131 14.1224 41.2101 14.1073 41.2072C13.6503 41.1192 13.3424 41.3553 13.2551 41.8124C13.1008 42.6202 12.8215 44.1989 12.3644 46.8717C12.1311 48.1423 11.6334 51.0398 11.229 53.3021L10.7517 55.9834C10.6039 56.814 9.8948 57.4276 9.05167 57.4547C8.25403 57.4806 7.62082 58.1347 7.62082 58.9328V59.345C7.62082 60.3719 6.78835 61.2044 5.76145 61.2044H3.81041H0.495834C0.221993 61.2044 0 61.4264 0 61.7003C0 61.9792 0.419923 63.7766 0.948715 65.6979C1.46195 67.6193 2.19293 70.2999 2.5662 71.6634C2.92391 73.0269 3.81041 76.2963 4.52584 78.9305L5.81671 83.7029L5.39679 86.1355C5.1635 87.4681 4.61915 90.5361 4.19923 92.9533C3.89068 94.6659 3.63679 96.1685 3.52053 96.9045C3.47027 97.2226 3.6119 97.4197 3.92876 97.4774C4.97506 97.6678 7.38932 98.082 7.51195 98.082C7.57416 98.082 7.62082 101.816 7.62082 106.372V113.661C7.62082 114.214 8.06854 114.661 8.62082 114.661H10.8713H13.3859C13.831 114.661 14.2226 114.956 14.3464 115.383L14.3707 115.467C14.4951 115.917 14.7595 116.893 14.9461 117.652C15.1378 118.443 15.8459 119 16.6598 119H65.7257C109.678 119 116.163 118.969 116.085 118.783C116.039 118.659 116.07 117.791 116.163 116.877C116.256 115.963 116.443 113.949 116.567 112.415C116.707 110.881 116.91 108.479 117.034 107.069C117.267 104.59 117.952 96.672 118.434 91.1094C118.574 89.6219 118.745 87.6695 118.823 86.7708C118.9 85.8721 119.087 83.9198 119.211 82.4323C119.476 79.3178 120.44 68.5335 120.767 64.7682C120.891 63.3582 121 61.9792 121 61.7003V61.2044H116.412C113.892 61.2044 111.824 61.1889 111.824 61.1579C111.824 61.1424 111.933 60.5381 112.057 59.8254C112.182 59.0971 112.259 58.4928 112.244 58.4773C112.213 58.4463 111.357 58.2914 110.346 58.1055C109.32 57.935 108.356 57.7181 108.216 57.6406C108.06 57.5476 107.671 57.4857 107.36 57.4857C107.034 57.4857 104.67 57.1138 102.119 56.6489C97.8887 55.9052 97.4377 55.7967 97.2199 55.4713C97.0799 55.2699 89.7857 42.7191 81.014 27.5962C67.2343 3.85819 64.9947 0.0774612 64.6837 0.0464706C64.4348 0.0309753 55.8964 4.84986 39.8305 14.1003ZM81.6206 31.4854C91.0455 47.7394 98.7596 61.0805 98.7596 61.1269C98.7596 61.1734 97.1733 61.2044 95.2292 61.2044H91.6832L91.3255 60.5691L90.9677 59.9493L90.4701 60.2437C90.1901 60.3987 89.7235 60.6931 89.4125 60.879C88.8526 61.2044 88.7126 61.2044 84.2023 61.1734L79.5521 61.1269L82.8959 59.2056C84.7311 58.1519 86.2553 57.2687 86.2864 57.2532C86.4108 57.1603 84.3889 53.9064 84.2334 53.9684C84.1401 54.0148 81.2629 55.6573 77.8413 57.6251L71.6202 61.2044H68.1519H64.6837L64.7303 60.4607L64.777 59.7324L72.1956 55.4713C76.286 53.1316 79.6298 51.1483 79.6298 51.0708C79.6298 50.8539 77.8568 47.8789 77.7324 47.8789C77.6546 47.8789 74.6219 49.5988 70.9825 51.6906C67.3276 53.7824 64.186 55.5643 63.9994 55.6573C63.7194 55.7812 63.5328 55.7348 63.0351 55.4094C62.2108 54.8671 60.8733 54.6656 58.4159 54.7276C57.3428 54.7586 56.4563 54.7431 56.4563 54.6966C56.4563 54.6501 58.9136 53.2246 61.8997 51.5202C64.8859 49.8157 67.3276 48.3437 67.2965 48.2663C67.281 48.1733 66.8766 47.414 66.41 46.5928C65.819 45.5392 65.4769 45.1053 65.3058 45.1363C65.1814 45.1673 61.3554 47.3366 56.7985 49.9552L48.54 54.6966L40.2659 54.6656L32.0075 54.6191L24.5577 41.7739C20.4518 34.7083 17 29.5 17.2168 28.8048C17.2168 28.2333 64.3104 1.7199 64.3882 1.82837C64.4504 1.89035 72.2112 15.2314 81.6206 31.4854ZM19.6431 43.6333C21.6466 43.9835 23.3853 44.2985 24.1278 44.4392C24.3832 44.4876 24.5774 44.6302 24.7081 44.8549C26.6009 48.1077 28.4448 51.3513 28.4148 51.3962C28.3837 51.4117 27.8238 51.3342 27.155 51.2103C26.4862 51.0863 25.8952 50.9779 25.833 50.9779C25.7553 50.9779 25.5842 51.7216 25.4287 52.6358C25.0865 54.7121 25.0087 54.8516 24.3711 54.8516C23.158 54.8516 21.4938 56.0756 20.8251 57.4547C20.4674 58.1829 20.1563 60.5072 19.9852 63.8385C19.9386 64.7372 19.8297 66.1937 19.7519 67.0924C19.6586 67.9911 19.1765 73.5693 18.6632 79.4883C18.15 85.4073 17.6212 91.3728 17.4968 92.7363C17.3724 94.0999 17.2324 95.8198 17.1702 96.5635C17.108 97.2918 17.1688 97.7895 16.9524 98.0975C16.8436 98.2525 15.5683 98.0665 11.1202 97.2918C7.97853 96.7495 5.33458 96.2536 5.24126 96.1917C5.13239 96.1297 5.1946 95.3859 5.50566 93.7125C5.91003 91.4193 9.42494 71.6169 12.8621 52.171C13.7797 46.9957 14.5884 42.7656 14.6662 42.7656C14.7284 42.7656 16.968 43.153 19.6431 43.6333ZM29.9234 53.8599C30.1411 54.2627 30.3278 54.6036 30.3278 54.6346C30.3278 54.6656 30.0323 54.6966 29.6901 54.6966H29.0369L29.1458 54.1078C29.1924 53.7979 29.2391 53.4105 29.2391 53.2556C29.2391 52.8527 29.4724 53.0542 29.9234 53.8599ZM61.9931 56.8039C63.0817 57.6096 63.1595 57.935 62.9262 61.0805L62.7862 62.9088H90.9677L118 64C118 64.2789 119.071 64.6443 118.978 65.543C118.9 66.4417 118.62 69.5716 118.356 72.5156C118.107 75.4596 117.61 81.0687 117.267 84.9889C116.739 90.9234 115.852 101.073 115.09 109.781C114.997 110.803 114.826 112.787 114.701 114.197C114.577 115.607 113.399 115.588 113 116C112.532 116.483 112.042 117.296 65.7879 117.296C47.9266 117.296 36.8682 117.178 30 117.006C29.9884 117.006 29.9769 117.005 29.9654 117.005C23.3221 116.838 20.6111 116.619 19.4537 116.407C18.7768 116.282 18.4143 115.636 18.2891 114.959C18.0237 113.525 17.6396 110.697 17.9634 106.976C18.4455 101.615 19.0365 94.8591 19.2853 91.9616C19.5342 89.0641 20.1719 81.921 20.6695 76.0794C21.1828 70.2379 21.6494 64.7992 21.696 63.9935C21.8515 61.0185 24.3711 59.5 25.242 59.0661C26 58.5 26.3929 57.6251 27.155 57.4547C27.4194 57.3772 33.0806 56.4475 43.1898 56.4475C61.4954 56.4785 61.5731 56.4785 61.9931 56.8039ZM104.903 58.5858C107.982 59.1126 110.533 59.5775 110.564 59.593C110.58 59.624 110.564 59.9958 110.502 60.4142L110.393 61.2044H105.447H100.502L99.4751 59.4225C98.9152 58.4463 98.4486 57.6096 98.4486 57.5476C98.4486 57.4857 98.6352 57.4857 98.8841 57.5322C99.1174 57.5786 101.824 58.0435 104.903 58.5858ZM10.187 59.2211C10.1404 59.4225 9.89152 60.7551 9.64267 62.1961C9.39383 63.6371 9.14499 64.8457 9.09833 64.8922C9.05167 64.9387 9.02057 63.6061 9.02057 61.9327V58.8802H9.64267C10.2181 58.8802 10.2648 58.9112 10.187 59.2211ZM7.62082 68.2081C7.62082 73.4763 7.62082 73.5383 7.12314 76.3893C6.85874 77.9698 6.59435 79.3023 6.53213 79.3798C6.45437 79.4573 3.81041 69.866 2.08406 63.2497L1.99075 62.9088H4.80578H7.62082V68.2081ZM12.9865 99.0582L16.2592 99.6424C16.5314 99.691 16.7382 99.9143 16.7658 100.189C16.828 100.887 15.7238 113.004 15.5838 113.143C15.506 113.22 14.0285 113.251 12.2711 113.236L10.0775 113.204C9.53343 113.196 9.09559 112.754 9.09216 112.21L9.05167 105.783C9.03612 101.723 9.06722 98.3919 9.12943 98.3919C9.2072 98.3919 10.9335 98.7018 12.9865 99.0582Z" fill="white"/>
<path d="M19.4537 116.407C18.7768 116.282 18.4143 115.636 18.2891 114.959C18.0237 113.525 17.6396 110.697 17.9634 106.976C18.4455 101.615 19.0365 94.8591 19.2853 91.9616C18.5 116 24.384 116.831 29.9654 117.005C23.3221 116.838 20.6111 116.619 19.4537 116.407Z" fill="white"/>
<path d="M47.2025 25.8298C37.3732 31.4854 29.1613 36.1958 28.9747 36.3043C28.6325 36.4902 28.6325 36.5057 29.5813 38.1172C29.9366 38.7211 30.2498 39.255 30.4265 39.5497C30.5238 39.7122 30.6383 39.7628 30.8044 39.6717C33.8581 37.9971 66.594 19.2169 66.8611 18.9656C67.0322 18.8107 66.9233 18.5163 66.1768 17.2147C65.6946 16.347 65.2436 15.6188 65.1814 15.5878C65.1347 15.5568 57.0473 20.1587 47.2025 25.8298Z" fill="white"/>
<path d="M47.8246 35.3281C39.7061 40.0075 33.0495 43.8967 33.0495 43.9587C33.0495 44.0207 33.4539 44.7954 33.9516 45.6631C34.7136 46.9957 34.9158 47.2281 35.1336 47.1196C35.989 46.6548 64.637 30.1683 64.7303 30.0909C64.8703 29.9359 63.0507 26.8834 62.8018 26.8524C62.6929 26.8369 55.9586 30.6487 47.8246 35.3281Z" fill="white"/>
<path d="M53.999 41.6655C44.9784 46.8562 37.5442 51.1638 37.4509 51.2567C37.2176 51.4892 39.0373 54.5726 39.3639 54.4951C39.7993 54.3712 72.4756 35.576 72.4756 35.4366C72.4756 35.1886 70.687 32.2291 70.5315 32.2446C70.4537 32.2446 63.004 36.4902 53.999 41.6655Z" fill="white"/>
</g>
<defs>
<clipPath id="clip0_938_636">
<rect width="121" height="119" fill="white"/>
</clipPath>
</defs>
</svg>
