<svg width="119" height="118" viewBox="0 0 119 118" fill="none" xmlns="http://www.w3.org/2000/svg">
<path d="M52.1609 5.32529C46.0118 7.78223 40.84 9.8998 40.65 10.022C40.46 10.1441 40.1885 10.4971 40.0392 10.8093C39.7948 11.3658 39.7812 12.6418 39.7812 63.6673V115.969H41.9531V117.055V91.3451V65.6356L41.4916 11.4795L52.1609 6.99998C56.844 5.12674 60.7534 3.59286 60.8484 3.56571C61.0113 3.52499 61.5 14.515 61.5 61.1153V115.969H63.6719V113.5L64 58.5C64 24.8767 64.0543 3.67374 64.1222 3.70088C64.19 3.71445 70.9205 6.36592 76.8253 8.83643L87.5625 13.3159V65.6355V115.969H89.7344L89.2986 116.528V65.3128V14.0973L89 13.5C88.7828 13.0928 88.4176 12.7941 88.0511 12.6041C86.9516 12.0068 64.2827 0.954399 63.8212 0.900101C63.4275 0.859375 61.2828 1.66026 52.1609 5.32529Z" fill="white"/>
<path d="M54.9844 17.1484V20.4062H57.1562H59.3281V17.1484V13.8906H57.1562H54.9844V17.1484Z" fill="white"/>
<path d="M68.0156 17.1484V20.4062H70.1875H72.3594V17.1484V13.8906H70.1875H68.0156V17.1484Z" fill="white"/>
<path d="M46.2969 19.3203V22.5781H48.4688H50.6406V19.3203V16.0625H48.4688H46.2969V19.3203Z" fill="white"/>
<path d="M74.5312 19.3203V22.5781H76.7031H78.875V19.3203V16.0625H76.7031H74.5312V19.3203Z" fill="white"/>
<path d="M81.0469 21.4922V24.75H83.2188H85.3906V21.4922V18.2344H83.2188H81.0469V21.4922Z" fill="white"/>
<path d="M54.9844 30.1797V33.4375H57.1562H59.3281V30.1797V26.9219H57.1562H54.9844V30.1797Z" fill="white"/>
<path d="M68.0156 30.1797V33.4375H70.1875H72.3594V30.1797V26.9219H70.1875H68.0156V30.1797Z" fill="white"/>
<path d="M46.2969 32.3516V35.6094H48.4688H50.6406V32.3516V29.0938H48.4688H46.2969V32.3516Z" fill="white"/>
<path d="M74.5312 32.3516V35.6094H76.7031H78.875V32.3516V29.0938H76.7031H74.5312V32.3516Z" fill="white"/>
<path d="M81.0469 34.5234V37.7812H83.2188H85.3906V34.5234V31.2656H83.2188H81.0469V34.5234Z" fill="white"/>
<path d="M54.9844 43.2109V46.4688H57.1562H59.3281V43.2109V39.9531H57.1562H54.9844V43.2109Z" fill="white"/>
<path d="M68.0156 43.2109V46.4688H70.1875H72.3594V43.2109V39.9531H70.1875H68.0156V43.2109Z" fill="white"/>
<path d="M46.2969 45.3828V48.6406H48.4688H50.6406V45.3828V42.125H48.4688H46.2969V45.3828Z" fill="white"/>
<path d="M74.5312 45.3828V48.6406H76.7031H78.875V45.3828V42.125H76.7031H74.5312V45.3828Z" fill="white"/>
<path d="M92.25 44.2969H97.4896V81.2188V115.969H98.7656L98.7928 81.9789L99.3647 45.8308L106.939 50.0388L116.141 55V86.1869V115.969H118.312V85.386C118.312 55.6449 118.299 54.8033 118.055 54.2468C117.892 53.9074 117.579 53.5545 117.267 53.3509C116.521 52.8622 98.1548 42.6815 97.4896 42.3829C97.001 42.1522 96.553 42.125 93.5124 42.125H92.25V44.2969Z" fill="white"/>
<path d="M81.0469 47.5547V50.8125H83.2188H85.3906V47.5547V44.2969H83.2188H81.0469V47.5547Z" fill="white"/>
<path d="M54.9844 56.2422V59.5H57.1562H59.3281V56.2422V52.9844H57.1562H54.9844V56.2422Z" fill="white"/>
<path d="M68.0156 56.2422V59.5H70.1875H72.3594V56.2422V52.9844H70.1875H68.0156V56.2422Z" fill="white"/>
<path d="M1.90918 55.4549C1.46123 55.6856 1.21689 55.93 0.999707 56.3779L0.6875 56.9752V86.472V115.969H2.85938V87.7344V57.3281H21.3203H37.6094V55.1562H20.0579H2.50645L1.90918 55.4549Z" fill="white"/>
<path d="M46.2969 58.4141V61.6719H48.4688H50.6406V58.4141V55.1562H48.4688H46.2969V58.4141Z" fill="white"/>
<path d="M74.5312 58.4141V61.6719H76.7031H78.875V58.4141V55.1562H76.7031H74.5312V58.4141Z" fill="white"/>
<path d="M101.938 57.3281V59.5H104.109H106.281V57.3281V55.1562H104.109H101.938V57.3281Z" fill="white"/>
<path d="M81.0469 60.5859V63.8438H83.2188H85.3906V60.5859V57.3281H83.2188H81.0469V60.5859Z" fill="white"/>
<path d="M108.453 61.6719V63.8438H110.625H112.797V61.6719V59.5H110.625H108.453V61.6719Z" fill="white"/>
<path d="M9.375 66.0156V68.1875H12.6328H15.8906V66.0156V63.8438H12.6328H9.375V66.0156Z" fill="white"/>
<path d="M20.2344 66.0156V68.1875H23.4922H26.75V66.0156V63.8438H23.4922H20.2344V66.0156Z" fill="white"/>
<path d="M31.0938 66.0156V68.1875H33.2656H35.4375V66.0156V63.8438H33.2656H31.0938V66.0156Z" fill="white"/>
<path d="M101.938 66.0156V68.1875H104.109H106.281V66.0156V63.8438H104.109H101.938V66.0156Z" fill="white"/>
<path d="M54.9844 69.2734V72.5312H57.1562H59.3281V69.2734V66.0156H57.1562H54.9844V69.2734Z" fill="white"/>
<path d="M68.0156 69.2734V72.5312H70.1875H72.3594V69.2734V66.0156H70.1875H68.0156V69.2734Z" fill="white"/>
<path d="M46.2969 71.4453V74.7031H48.4688H50.6406V71.4453V68.1875H48.4688H46.2969V71.4453Z" fill="white"/>
<path d="M74.5312 71.4453V74.7031H76.7031H78.875V71.4453V68.1875H76.7031H74.5312V71.4453Z" fill="white"/>
<path d="M108.453 70.3594V72.5312H110.625H112.797V70.3594V68.1875H110.625H108.453V70.3594Z" fill="white"/>
<path d="M81.0469 73.6172V76.875H83.2188H85.3906V73.6172V70.3594H83.2188H81.0469V73.6172Z" fill="white"/>
<path d="M9.375 74.7031V76.875H12.6328H15.8906V74.7031V72.5312H12.6328H9.375V74.7031Z" fill="white"/>
<path d="M20.2344 74.7031V76.875H23.4922H26.75V74.7031V72.5312H23.4922H20.2344V74.7031Z" fill="white"/>
<path d="M31.0938 74.7031V76.875H33.2656H35.4375V74.7031V72.5312H33.2656H31.0938V74.7031Z" fill="white"/>
<path d="M101.938 74.7031V76.875H104.109H106.281V74.7031V72.5312H104.109H101.938V74.7031Z" fill="white"/>
<path d="M108.453 79.0469V81.2188H110.625H112.797V79.0469V76.875H110.625H108.453V79.0469Z" fill="white"/>
<path d="M54.9844 82.3047V85.5625H57.1562H59.3281V82.3047V79.0469H57.1562H54.9844V82.3047Z" fill="white"/>
<path d="M68.0156 82.3047V85.5625H70.1875H72.3594V82.3047V79.0469H70.1875H68.0156V82.3047Z" fill="white"/>
<path d="M9.375 83.3906V85.5625H12.6328H15.8906V83.3906V81.2188H12.6328H9.375V83.3906Z" fill="white"/>
<path d="M20.2344 83.3906V85.5625H23.4922H26.75V83.3906V81.2188H23.4922H20.2344V83.3906Z" fill="white"/>
<path d="M31.0938 83.3906V85.5625H33.2656H35.4375V83.3906V81.2188H33.2656H31.0938V83.3906Z" fill="white"/>
<path d="M46.2969 84.4766V87.7344H48.4688H50.6406V84.4766V81.2188H48.4688H46.2969V84.4766Z" fill="white"/>
<path d="M74.5312 84.4766V87.7344H76.7031H78.875V84.4766V81.2188H76.7031H74.5312V84.4766Z" fill="white"/>
<path d="M101.938 83.3906V85.5625H104.109H106.281V83.3906V81.2188H104.109H101.938V83.3906Z" fill="white"/>
<path d="M81.0469 86.6484V89.9062H83.2188H85.3906V86.6484V83.3906H83.2188H81.0469V86.6484Z" fill="white"/>
<path d="M108.453 87.7344V89.9062H110.625H112.797V87.7344V85.5625H110.625H108.453V87.7344Z" fill="white"/>
<path d="M9.375 92.0781V94.25H12.6328H15.8906V92.0781V89.9062H12.6328H9.375V92.0781Z" fill="white"/>
<path d="M20.2344 92.0781V94.25H23.4922H26.75V92.0781V89.9062H23.4922H20.2344V92.0781Z" fill="white"/>
<path d="M31.0938 92.0781V94.25H33.2656H35.4375V92.0781V89.9062H33.2656H31.0938V92.0781Z" fill="white"/>
<path d="M101.938 92.0781V94.25H104.109H106.281V92.0781V89.9062H104.109H101.938V92.0781Z" fill="white"/>
<path d="M54.9844 95.3359V98.5938H57.1562H59.3281V95.3359V92.0781H57.1562H54.9844V95.3359Z" fill="white"/>
<path d="M68.0156 95.3359V98.5938H70.1875H72.3594V95.3359V92.0781H70.1875H68.0156V95.3359Z" fill="white"/>
<path d="M46.2969 97.5078V100.766H48.4688H50.6406V97.5078V94.25H48.4688H46.2969V97.5078Z" fill="white"/>
<path d="M74.5312 97.5078V100.766H76.7031H78.875V97.5078V94.25H76.7031H74.5312V97.5078Z" fill="white"/>
<path d="M108.453 96.4219V98.5938H110.625H112.797V96.4219V94.25H110.625H108.453V96.4219Z" fill="white"/>
<path d="M81.0469 99.6797V102.938H83.2188H85.3906V99.6797V96.4219H83.2188H81.0469V99.6797Z" fill="white"/>
<path d="M9.375 100.766V102.938H12.6328H15.8906V100.766V98.5938H12.6328H9.375V100.766Z" fill="white"/>
<path d="M20.2344 100.766V102.938H23.4922H26.75V100.766V98.5938H23.4922H20.2344V100.766Z" fill="white"/>
<path d="M31.0938 100.766V102.938H33.2656H35.4375V100.766V98.5938H33.2656H31.0938V100.766Z" fill="white"/>
<path d="M101.938 100.766V102.938H104.109H106.281V100.766V98.5938H104.109H101.938V100.766Z" fill="white"/>
<path d="M108.453 105.109V107.281H110.625H112.797V105.109V102.938H110.625H108.453V105.109Z" fill="white"/>
<path d="M54.9844 108.367V111.625H57.1562H59.3281V108.367V105.109H57.1562H54.9844V108.367Z" fill="white"/>
<path d="M68.0156 108.367V111.625H70.1875H72.3594V108.367V105.109H70.1875H68.0156V108.367Z" fill="white"/>
<path d="M9.375 109.453V111.625H12.6328H15.8906V109.453V107.281H12.6328H9.375V109.453Z" fill="white"/>
<path d="M20.2344 109.453V111.625H23.4922H26.75V109.453V107.281H23.4922H20.2344V109.453Z" fill="white"/>
<path d="M31.0938 109.453V111.625H33.2656H35.4375V109.453V107.281H33.2656H31.0938V109.453Z" fill="white"/>
<path d="M46.2969 110.539V113.797H48.4688H50.6406V110.539V107.281H48.4688H46.2969V110.539Z" fill="white"/>
<path d="M74.5312 110.539V113.797H76.7031H78.875V110.539V107.281H76.7031H74.5312V110.539Z" fill="white"/>
<path d="M101.938 109.453V111.625H104.109H106.281V109.453V107.281H104.109H101.938V109.453Z" fill="white"/>
<path d="M81.0469 112.711V115.969H83.2188H85.3906V112.711V109.453H83.2188H81.0469V112.711Z" fill="white"/>
<path d="M108.453 113.797V115.969H110.625H112.797V113.797V111.625H110.625H108.453V113.797Z" fill="white"/>
<path d="M4 28.2692L12.4545 35L26.5 20" stroke="white" stroke-width="2"/>
</svg>
