<svg width="130" height="139" viewBox="0 0 130 139" fill="none" xmlns="http://www.w3.org/2000/svg">
<path d="M56.4509 38.7126C54.7304 35.5707 53.0846 32.7841 52.8228 32.5036C52.056 31.6807 51.2893 31.4189 49.6248 31.4189L56.4509 38.7126ZM56.4509 38.7126L59.6115 44.4166M56.4509 38.7126L73.0954 61.0423M59.518 50.2141C64.7358 53.2063 69.9909 57.3955 73.0954 61.0423M59.518 50.2141C58.8447 49.84 58.2837 49.5034 58.2463 49.466C58.2276 49.4473 58.5081 48.8862 58.9009 48.2317M59.518 50.2141L59.1427 50.8685L59.0263 51.0849C61.68 52.6071 64.3374 54.441 66.7019 56.3459C66.7038 56.3474 66.7056 56.3488 66.7074 56.3503C68.9212 58.1342 70.8779 59.9801 72.3339 61.6905L72.3339 61.6906L72.338 61.6953L72.8459 62.2845M59.518 50.2141L59.1517 50.8735C59.7415 51.1999 60.454 51.6308 61.2176 52.1177C63.0469 53.2845 65.2423 54.8201 66.8759 56.1288L66.8835 56.1349L66.8834 56.135C67.8872 56.9553 69.35 58.2957 70.5353 59.4456C71.1288 60.0214 71.6652 60.5616 72.0473 60.9746C72.235 61.1775 72.403 61.3685 72.5237 61.5259C72.5242 61.5265 72.5247 61.5271 72.5252 61.5278C72.5261 61.529 72.527 61.5302 72.528 61.5315C72.583 61.6035 72.6562 61.7047 72.7146 61.8162C72.7412 61.867 72.7984 61.9819 72.828 62.1333C72.834 62.1636 72.8428 62.2165 72.8459 62.2845M73.0954 61.0423L74.0305 62.127L73.0954 61.0423ZM58.9009 48.2317C59.5367 47.1657 59.6115 46.9039 59.6115 45.7257V44.4166M58.9009 48.2317L58.042 47.7194C58.0424 47.7188 58.0427 47.7183 58.0431 47.7177M58.9009 48.2317L58.0434 47.7172C58.0433 47.7174 58.0432 47.7175 58.0431 47.7177M59.6115 44.4166H58.6115V44.6751M59.6115 44.4166L58.7368 44.9012L58.6115 44.6751M58.6115 44.6751L55.5762 39.1972L55.5738 39.1929C54.7178 37.6297 53.881 36.1561 53.2272 35.0408C52.8999 34.4827 52.6209 34.0184 52.4095 33.6792C52.3035 33.5091 52.2178 33.3758 52.1535 33.2801C52.1024 33.204 52.079 33.1736 52.077 33.1701M58.6115 44.6751V45.7257C58.6115 46.3139 58.5891 46.5489 58.5326 46.7478C58.4746 46.9523 58.3628 47.1816 58.0431 47.7177M52.077 33.1701L57.5479 50.1817C57.545 50.1789 57.5421 50.176 57.5392 50.1731C57.2445 49.8784 57.2453 49.5232 57.2454 49.4698L57.2454 49.4661C57.2451 49.3621 57.2612 49.281 57.268 49.2488C57.2834 49.1761 57.304 49.118 57.3124 49.0948C57.3328 49.0383 57.3568 48.9835 57.3754 48.9429C57.4154 48.8549 57.4699 48.7453 57.5324 48.6254C57.6588 48.3826 57.8369 48.0614 58.0431 47.7177M52.077 33.1701C51.7885 32.8638 51.5428 32.7028 51.2389 32.5996C50.898 32.4838 50.4195 32.4189 49.6248 32.4189H48.11H47.11V31.4189V28.8381V26.276V25.8588L47.4064 25.5653L49.2951 23.6953L49.9989 24.4058L49.2953 23.6952C50.287 22.7129 50.8401 22.0853 51.1291 21.6327C51.3326 21.3141 51.3594 21.1558 51.3525 21.0614M52.077 33.1701C52.0769 33.1699 52.0768 33.1698 52.0768 33.1698C52.077 33.1697 52.0821 33.1755 52.0912 33.1853M52.077 33.1701C52.0817 33.1752 52.0865 33.1802 52.0912 33.1853M52.077 33.1701L45.7215 1.16726C46.2821 1.33015 46.9352 2.02367 47.1141 2.83092C47.217 3.31234 47.297 3.98408 47.297 4.26411C47.297 4.46548 47.3094 4.71103 47.3919 4.98267C47.4749 5.25577 47.6096 5.49401 47.7765 5.72292C48.0808 6.14016 48.5995 6.66315 49.3894 7.44392M72.8459 62.2845L73.2731 62.78L73.627 63.1905L74.1642 63.118L81.9254 62.0707L81.9258 62.0707C84.0659 61.781 86.0328 61.5194 87.4781 61.3302C87.5881 61.3158 87.6951 61.3019 87.7989 61.2883M72.8459 62.2845C72.8549 62.4762 72.8192 62.7888 72.5495 63.0585C72.4277 63.1803 72.3023 63.2408 72.2738 63.2545L72.2717 63.2555C72.2243 63.2785 72.1838 63.2936 72.1611 63.3017C72.1141 63.3185 72.0713 63.3304 72.0443 63.3376C71.9865 63.353 71.9214 63.3675 71.859 63.3806C71.7303 63.4074 71.5599 63.439 71.3641 63.4726C70.9705 63.5402 70.4451 63.6214 69.8838 63.6975C69.8833 63.6976 69.8827 63.6976 69.8822 63.6977L69.7478 62.7068L87.7989 61.2883M87.7989 61.2883C87.7682 61.3192 87.7369 61.3506 87.7049 61.3825L86.1153 62.9722L85.4082 63.6793L86.1153 64.3864L92.7544 71.0255C95.3364 73.6075 96.9845 75.2837 97.9856 76.3563C98.4105 76.8115 98.706 77.1445 98.903 77.3843C98.7234 77.5967 98.4815 77.8701 98.1824 78.1986C97.4519 79.0007 96.4167 80.0916 95.2084 81.339C92.7936 83.8321 89.709 86.9283 87.0376 89.5445C86.3476 90.2203 85.778 90.5105 85.331 90.6272C84.8882 90.7428 84.4849 90.7095 84.0861 90.6042C83.777 90.5226 83.5265 90.4186 83.2423 90.3006C83.1148 90.2476 82.9804 90.1918 82.831 90.134C82.6205 90.0525 82.3565 89.9599 82.0786 89.9193C81.8484 89.8856 81.5694 89.8817 81.2794 89.972C80.6697 90.039 80.2163 90.3782 79.9641 90.5668C79.9528 90.5752 79.9419 90.5833 79.9315 90.5911C79.5898 90.8455 79.4402 90.9479 79.2544 90.9874C79.1142 91.0173 78.8081 91.0359 78.1908 90.7057C77.5567 90.3666 76.6701 89.6984 75.4292 88.4622C75.4289 88.4618 75.4286 88.4615 75.4283 88.4612L68.8279 81.8608L68.1208 81.1537L67.4137 81.8608L65.8614 83.4131C65.8061 83.4683 65.7511 83.5229 65.6965 83.5765C65.7184 83.3473 65.7425 83.0979 65.7684 82.8316C65.8921 81.5641 66.0579 79.9227 66.2261 78.2945C66.3943 76.6662 66.5647 75.0532 66.6976 73.8423C66.7318 73.5311 66.7634 73.2472 66.7918 72.9968C66.8069 73.0024 66.8222 73.008 66.8375 73.0137L66.8375 73.0138L66.846 73.0169C67.5835 73.2832 68.8202 73.5961 69.6356 73.7353L69.6356 73.7353L69.6452 73.7369C70.6314 73.8954 70.91 74.044 71.1437 74.2478C71.6513 74.6986 72.3502 74.9966 73.0025 75.1597C73.6581 75.3236 74.4126 75.3877 75.0702 75.2406C76.0188 75.0308 76.8439 74.6303 77.4994 74.0023C78.1545 73.3749 78.5863 72.5719 78.8305 71.6424C79.1922 70.3093 78.8982 68.7867 78.0587 67.6208L78.0587 67.6207L78.0536 67.6137L77.6421 67.0526L76.3519 65.2933L75.8613 67.4191L75.8306 67.5523C75.8075 67.2753 75.7633 66.9914 75.6907 66.7375C75.6658 66.6302 75.6172 66.4396 75.5145 66.2581C75.3657 65.9949 75.1276 65.7846 74.8087 65.6821C74.558 65.6015 74.3151 65.6086 74.1656 65.618C74.0005 65.6283 73.8087 65.6536 73.6118 65.6811L73.606 65.6819C72.383 65.8598 71.4766 66.3063 70.7064 67.1231C70.6767 67.154 70.6522 67.1794 70.631 67.2011C70.5113 67.1835 70.3457 67.1505 70.0854 67.0957C69.5463 66.9813 68.6054 66.6693 68.0227 66.4126C67.8092 66.3165 67.6535 66.2455 67.5353 66.1878C67.5555 66.0164 67.5839 65.7997 67.6142 65.5679C67.6466 65.3204 67.6813 65.0558 67.7107 64.811L87.7989 61.2883ZM41.0332 54.2297C40.6181 53.3454 40.1244 52.6122 39.8429 52.3552L39.8366 52.3495L39.8305 52.3437C38.6128 51.1936 37.9462 49.618 37.9462 47.8764V47.8673H37.9462C37.9684 45.4312 39.1561 43.5085 41.3839 42.351L41.3861 42.3499C42.4475 41.8017 43.7125 41.6421 44.8923 41.7825C46.0702 41.9227 47.2588 42.3733 48.1515 43.1591C48.4627 43.4306 48.8609 43.9354 49.1502 44.3398C49.3044 44.5555 49.4526 44.7776 49.5667 44.9713C49.6229 45.0665 49.6804 45.1711 49.7272 45.2738C49.7505 45.3249 49.7778 45.3903 49.801 45.4636C49.8199 45.5233 49.8581 45.655 49.8581 45.8192C49.8581 46.3496 49.4958 46.6178 49.3302 46.7129L41.0332 54.2297ZM41.0332 54.2297C41.4661 55.1544 42.031 56.1565 42.594 57.0302C42.8795 57.4732 43.1763 57.9017 43.4656 58.2783C43.0361 58.284 42.5626 58.2853 42.0759 58.2821C41.1945 58.2763 40.2817 58.256 39.5239 58.2225C38.7293 58.1874 38.1988 58.1407 38.0171 58.1013L38.0093 58.0996L38.0015 58.0981C37.597 58.0172 37.1814 57.8014 37.014 57.6572C37.0051 57.6458 36.9894 57.6254 36.9661 57.5933C36.9092 57.5149 36.8314 57.4016 36.7331 57.2528C36.5374 56.9568 36.2794 56.5491 35.977 56.0599C35.3732 55.0834 34.607 53.8051 33.8378 52.4963C33.0688 51.1877 32.2997 49.8538 31.6903 48.7664C31.0638 47.6485 30.6465 46.8618 30.5398 46.6006C30.4284 46.3279 30.3911 46.1653 30.3893 45.9986C30.3873 45.8203 30.4259 45.5559 30.5935 45.0951C30.9423 44.1366 31.7287 42.634 33.2774 39.8106L33.2774 39.8105C35.0338 36.6077 35.9514 34.9481 36.5375 34.0111C36.8283 33.5464 37.0117 33.3021 37.1508 33.1493C37.2751 33.0127 37.3803 32.9304 37.5601 32.8092L37.5621 32.8079C37.7716 32.6659 37.9078 32.6028 38.1168 32.5541C38.3716 32.4946 38.7442 32.455 39.4483 32.4175L39.4499 32.4174L41.1517 32.3239L42.0908 32.2723L42.0969 31.3318L42.1904 16.7452L42.1904 16.7445L41.0332 54.2297ZM49.3894 7.44392C49.3892 7.44373 49.389 7.44355 49.3888 7.44336L50.0924 6.73274L49.3894 7.44392ZM49.3894 7.44392C50.3328 8.37807 50.8613 8.98099 51.1378 9.41935C51.3339 9.7302 51.3599 9.88737 51.3524 9.98361M51.3524 9.98361C51.3417 10.0006 51.3274 10.0223 51.309 10.0489C51.2273 10.1673 51.099 10.3324 50.9214 10.5419C50.569 10.9578 50.0664 11.4972 49.4618 12.102M51.3524 9.98361C51.3504 10.0098 51.3459 10.0314 51.3417 10.0504L51.3381 10.0667L51.335 10.0831C51.3371 10.0716 51.3395 10.0607 51.3419 10.0505C51.3548 9.995 51.3704 9.95697 51.3775 9.9416M51.3524 9.98361C51.3655 9.96299 51.3734 9.94919 51.3775 9.9416M49.4618 12.102C48.5555 12.9991 47.9822 13.5827 47.6467 14.0263C47.4683 14.2622 47.3206 14.5043 47.2262 14.7765C47.1284 15.0588 47.11 15.3101 47.11 15.5225C47.11 15.735 47.1284 15.9863 47.2262 16.2685C47.3206 16.5408 47.4683 16.7828 47.6467 17.0187C47.9822 17.4623 48.5555 18.046 49.4618 18.9431M49.4618 12.102C49.4624 12.1013 49.463 12.1007 49.4637 12.1001L50.1672 12.8108L49.4601 12.1037C49.4606 12.1031 49.4612 12.1025 49.4618 12.102ZM49.4618 18.9431C50.0664 19.5478 50.569 20.0872 50.9214 20.5031C51.099 20.7126 51.2273 20.8777 51.309 20.9961C51.3274 21.0227 51.3417 21.0444 51.3525 21.0614M49.4618 18.9431C49.4612 18.9425 49.4606 18.9419 49.4601 18.9414L50.1672 18.2343L49.4637 18.9449C49.463 18.9443 49.4624 18.9437 49.4618 18.9431ZM51.3525 21.0614C51.3657 21.0825 51.3737 21.0964 51.3777 21.1039C51.3913 21.1294 51.363 21.0853 51.3419 20.9946C51.3395 20.9843 51.3371 20.9734 51.335 20.962L51.3381 20.9783L51.3417 20.9946C51.3458 21.0133 51.3505 21.0348 51.3525 21.0614ZM52.0912 33.1853L52.0918 33.1859L52.0912 33.1853ZM51.3775 9.9416C51.382 9.93182 51.383 9.93121 51.3777 9.94114L51.3775 9.9416ZM99.1607 77.7288C99.1755 77.7545 99.1711 77.7523 99.1597 77.7271C99.1601 77.7277 99.1604 77.7282 99.1607 77.7288ZM52.5392 57.2562C52.5413 57.254 52.5436 57.2517 52.5458 57.2494L52.5401 57.2552L52.5344 57.2611C52.5359 57.2595 52.5376 57.2579 52.5392 57.2562Z" stroke="white" stroke-width="2"/>
<rect width="8.13522" height="14.01" transform="matrix(-0.712494 0.701678 0.701678 0.712494 84.1964 72.3118)" fill="white"/>
<path d="M22.7359 76.26C24.5298 77.2392 30.2376 81.9722 35.2931 87.0316C41.9793 93.5599 44.2625 95.0287 43.6101 92.5806C42.7947 88.9901 42.7947 88.9901 69.866 88.9901C93.5125 88.9901 97.9157 89.4797 103.134 92.091C109.494 95.5183 130.858 116.082 129.39 117.551C128.901 118.041 123.519 113.634 117.485 107.759C100.688 91.6014 102.482 92.2542 73.1276 91.9278C56.3304 91.7646 47.1979 92.2542 46.8717 93.2334C45.5671 97.1504 52.0903 99.5985 66.6044 100.578L81.4446 101.394L66.2782 101.72C48.8287 102.047 48.0133 101.72 33.0099 87.6844C24.5298 79.8505 21.1051 77.5656 17.1912 77.5656C14.4189 77.5656 12.1357 78.0552 12.1357 78.8713C12.1357 81.3194 47.361 114.94 51.7641 116.572C54.3734 117.551 65.1367 118.367 75.7368 118.367H94.9803L105.417 127.996C110.962 133.382 115.202 138.278 114.55 138.931C113.898 139.584 108.842 135.504 103.46 130.118L93.6756 119.999H68.2352C49.481 119.999 41.8163 119.347 38.5547 117.714C36.1085 116.409 26.1606 107.269 16.2127 97.3136C3.00327 83.9307 -1.07372 78.7081 0.230927 77.4024C2.67712 74.9543 18.822 74.1383 22.7359 76.26ZM3.32944 78.8713C2.0248 80.9929 38.8808 116.735 42.4686 116.735C44.4255 116.735 39.5331 110.697 26.8129 97.3136C8.71107 78.7081 5.12331 75.9335 3.32944 78.8713Z" fill="white"/>
</svg>
