<svg width="51" height="51" viewBox="0 0 51 51" fill="none" xmlns="http://www.w3.org/2000/svg">
<mask id="mask0_938_697" style="mask-type:luminance" maskUnits="userSpaceOnUse" x="3" y="3" width="45" height="45">
<path d="M3.96722 25.4969C3.96722 13.3964 13.6304 3.54763 25.5029 3.54763C37.3754 3.54763 47.0386 13.3964 47.0386 25.4969C47.0386 37.5974 37.3754 47.4522 25.5029 47.4522C13.6246 47.4522 3.96722 37.6034 3.96722 25.4969ZM16.9355 4.83174C14.3161 5.96056 11.9603 7.57913 9.93861 9.63968C7.91689 11.7002 6.32882 14.0952 5.22127 16.771C4.0727 19.5363 3.49255 22.4748 3.49255 25.5029C3.49255 28.531 4.0727 31.4695 5.22127 34.2348C6.32882 36.9046 7.91689 39.3056 9.93861 41.3661C11.9603 43.4267 14.3102 45.0452 16.9355 46.174C19.6487 47.3447 22.5319 47.936 25.5029 47.936C28.4739 47.936 31.3571 47.3447 34.0703 46.174C36.6897 45.0452 39.0455 43.4267 41.0672 41.3661C43.0889 39.3056 44.677 36.9106 45.7845 34.2348C46.9331 31.4695 47.5132 28.531 47.5132 25.5029C47.5132 22.4748 46.9331 19.5363 45.7845 16.771C44.677 14.1012 43.0889 11.7002 41.0672 9.63968C39.0455 7.57913 36.6956 5.96056 34.0703 4.83174C31.3512 3.66111 28.4739 3.06982 25.5029 3.06982C22.5319 3.06982 19.6487 3.66111 16.9355 4.83174Z" fill="white"/>
</mask>
<g mask="url(#mask0_938_697)">
<path d="M47.5077 3.06982H3.49878V47.924H47.5077V3.06982Z" fill="url(#paint0_linear_938_697)"/>
</g>
<mask id="mask1_938_697" style="mask-type:luminance" maskUnits="userSpaceOnUse" x="11" y="7" width="28" height="29">
<path d="M11.9135 32.7177C12.4468 31.5172 16.0683 21.2622 16.4082 20.5097C16.4316 20.4559 16.4609 20.4022 16.4961 20.3365C16.8946 21.0412 21.149 32.7595 21.1841 33.0163H11.808C11.8432 32.9088 11.8725 32.8132 11.9135 32.7177ZM33.7832 20.3365C33.8184 20.4022 33.8477 20.4559 33.8711 20.5097C34.211 21.2622 37.8325 31.5172 38.3658 32.7177C38.4068 32.8072 38.4361 32.9088 38.4771 33.0163H29.101C29.1303 32.7595 33.3906 21.0412 33.7832 20.3365ZM24.5478 16.8365C24.5478 16.5021 24.8173 16.2273 25.1455 16.2273C25.4737 16.2273 25.7432 16.5021 25.7432 16.8365C25.7432 17.171 25.4737 17.4457 25.1455 17.4457C24.8115 17.4457 24.5478 17.171 24.5478 16.8365ZM23.786 9.72316L24.6064 10.8639V11.5568H24.4599C24.3251 11.5568 24.2196 11.6702 24.2196 11.8016C24.2196 11.939 24.331 12.0525 24.4599 12.0525H24.6064V13.1156H24.4599C24.3251 13.1156 24.2196 13.2291 24.2196 13.3605C24.2196 13.4978 24.331 13.6113 24.4599 13.6113H24.6064V14.6744H24.4599C24.3251 14.6744 24.2196 14.7879 24.2196 14.9253C24.2196 15.0627 24.331 15.1702 24.4599 15.1702H24.6064V15.7555C24.3134 15.9048 24.0966 16.1736 24.0028 16.4961C23.5809 16.6394 23.1882 16.8664 22.8425 17.159C22.5905 17.165 22.3854 17.3741 22.3854 17.6309C22.3854 17.8937 22.5964 18.1087 22.8542 18.1087C23.071 18.1087 23.2527 17.9594 23.3055 17.7563C23.5281 17.5592 23.7801 17.4039 24.0438 17.2904C24.1141 17.4636 24.2138 17.613 24.3485 17.7384C24.3485 18.485 24.3427 19.5421 24.3427 20.7964L23.5633 20.7068C23.534 20.7008 23.5106 20.6889 23.4813 20.6829C22.9363 20.5575 22.3796 20.5455 21.8229 20.5097C21.4185 20.4798 21.0083 20.4619 20.5981 20.438C20.0355 20.4022 19.4847 20.3006 18.9397 20.1334C18.4651 19.9901 18.008 19.8049 17.6095 19.5063C17.3927 19.345 17.2169 19.1419 17.1114 18.8851C17.0704 18.7776 17.0352 18.6701 17.0059 18.5566C16.9825 18.4611 16.9239 18.4013 16.8418 18.3536C16.6543 18.2461 16.4609 18.1684 16.2382 18.1744C15.8573 18.1863 15.5585 18.4551 15.5233 18.8373C15.4881 19.2136 15.6346 19.5063 15.9394 19.7213C16.0507 19.7989 16.1679 19.8646 16.3027 19.9482C14.6619 23.6393 13.0386 28.9251 11.351 33.1537C14.0583 36.2116 19.2327 36.0743 21.7408 33.1178C21.606 33.0402 17.6036 21.9969 17.1348 20.9337C17.0176 20.6769 16.9063 20.4201 16.7832 20.1394C16.8535 20.1453 16.9004 20.1453 16.9414 20.1573C17.5274 20.2708 18.1134 20.3962 18.6995 20.5037C19.6605 20.6829 20.6215 20.874 21.5592 21.1547C22.3327 21.3876 24.1903 22.176 24.3368 22.2358C24.3368 22.7375 24.3368 23.2511 24.3368 23.7886C24.4013 23.7349 24.4657 23.6871 24.5302 23.6393C24.5302 21.2383 24.5302 19.1539 24.5361 17.8817C24.6591 17.9594 24.8056 18.0131 24.9521 18.037V23.3825C25.2627 23.2212 25.6026 23.1137 25.9542 23.054C25.9542 22.7733 25.9542 22.5045 25.9542 22.2358C26.1652 22.1462 27.9642 21.3876 28.726 21.1607C29.6636 20.88 30.6246 20.6889 31.5857 20.5097C32.1717 20.3962 32.7577 20.2767 33.3437 20.1633C33.3906 20.1573 33.4316 20.1513 33.5019 20.1453C33.3789 20.4261 33.2675 20.6829 33.1503 20.9397C32.6757 22.0028 28.6733 33.0462 28.5443 33.1238C31.0524 36.0743 36.2269 36.2176 38.9342 33.1596C37.2406 28.931 35.6174 23.6513 33.9825 19.9542C34.1114 19.8706 34.2344 19.8049 34.3458 19.7273C34.6505 19.5122 34.797 19.2196 34.7618 18.8433C34.7267 18.4551 34.422 18.1923 34.0469 18.1804C33.8242 18.1744 33.6309 18.2461 33.4433 18.3595C33.3613 18.4073 33.3086 18.467 33.2793 18.5626C33.25 18.6761 33.2148 18.7836 33.1738 18.8911C33.0741 19.1479 32.8983 19.351 32.6757 19.5123C32.2713 19.8109 31.8142 19.996 31.3396 20.1394C30.8005 20.3066 30.2496 20.4081 29.6812 20.444C29.2768 20.4679 28.8666 20.4858 28.4564 20.5156C27.8997 20.5575 27.343 20.5634 26.798 20.6889C26.7687 20.6948 26.7453 20.7008 26.716 20.7127L25.9483 20.8023C25.9483 19.5481 25.9483 18.4909 25.9425 17.7444C26.0714 17.6249 26.1769 17.4696 26.2472 17.2964C26.5109 17.4099 26.7629 17.5652 26.9856 17.7623C27.0383 17.9653 27.22 18.1147 27.4368 18.1147C27.6946 18.1147 27.9056 17.8996 27.9056 17.6369C27.9056 17.38 27.7005 17.171 27.4485 17.165C27.1028 16.8664 26.7101 16.6454 26.2882 16.5021C26.1945 16.1795 25.9718 15.9108 25.6846 15.7615V15.1761H25.8311C25.9659 15.1761 26.0714 15.0627 26.0714 14.9313C26.0714 14.7939 25.9601 14.6804 25.8311 14.6804H25.6846V13.6173H25.8311C25.9659 13.6173 26.0714 13.5038 26.0714 13.3664C26.0714 13.2291 25.9601 13.1216 25.8311 13.1216H25.6846V12.0584H25.8311C25.9659 12.0584 26.0714 11.945 26.0714 11.8076C26.0714 11.6702 25.9601 11.5627 25.8311 11.5627H25.6846V10.8699L26.505 9.72914L25.1455 7.8418L23.786 9.72316Z" fill="white"/>
</mask>
<g mask="url(#mask1_938_697)">
<path d="M38.9338 7.83545H11.3447V36.2053H38.9338V7.83545Z" fill="url(#paint1_radial_938_697)"/>
</g>
<mask id="mask2_938_697" style="mask-type:luminance" maskUnits="userSpaceOnUse" x="24" y="35" width="2" height="8">
<path d="M25.0634 35.6863C25.0517 35.6803 25.0517 35.6863 25.0459 35.6922C25.04 35.6982 25.04 35.7042 25.0283 35.6982C24.999 35.6982 24.9755 35.6982 24.9462 35.7042V41.1751L24.536 40.1598C24.536 39.879 24.536 38.0335 24.5302 35.6206C24.4657 35.6206 24.4013 35.6206 24.3368 35.6146C24.3368 38.2545 24.3427 40.2016 24.3427 40.2016L25.1338 42.1725L25.9249 40.2016C25.9249 40.2016 25.9249 38.0036 25.9307 35.4175C25.7432 35.4952 25.7022 35.519 25.5264 35.4115C25.5264 35.4115 25.5264 35.4115 25.5205 35.4115C25.4971 35.3996 25.3975 35.6564 25.0634 35.6863Z" fill="white"/>
</mask>
<g mask="url(#mask2_938_697)">
<path d="M25.9427 35.3994H24.3429V42.1664H25.9427V35.3994Z" fill="url(#paint2_radial_938_697)"/>
</g>
<mask id="mask3_938_697" style="mask-type:luminance" maskUnits="userSpaceOnUse" x="20" y="25" width="9" height="7">
<path d="M24.6005 31.8816C24.4599 31.8696 24.1962 31.8159 24.1024 31.7502C24.0262 31.6964 23.8797 31.4336 23.8563 31.3142C24.0907 31.2365 24.3368 31.0633 24.6533 31.129C24.917 31.1708 25.2158 31.2365 25.3623 31.3978C25.251 31.7024 25.1396 31.8756 24.6826 31.8756C24.6591 31.8875 24.6298 31.8875 24.6005 31.8816ZM20.9321 25.2579L21.5181 26.8586C21.5826 27.2827 21.4888 27.6589 21.7408 28.1367C22.0397 28.6802 21.7701 28.8296 22.4968 29.612C22.7194 29.8509 22.6374 29.7613 22.7429 30.1017C22.8073 30.2869 22.9011 30.4481 23.0007 30.5795C23.1179 30.7408 23.2234 30.8423 23.3406 30.9797C23.5105 31.1828 23.7039 31.338 23.8622 31.565C24.0204 31.78 23.9911 31.9114 24.5536 31.9891C24.7119 32.013 25.04 31.9652 25.1807 31.8935C25.2686 31.8517 25.4561 31.6247 25.5498 31.5172C25.837 31.2007 26.3058 30.9439 26.5168 30.2928C26.6105 30.0121 26.5929 30.1853 26.8566 29.8688C27.0676 29.6299 27.2727 29.3611 27.4426 28.9908C27.6419 28.525 27.5891 28.2204 27.6536 28.083C28.0462 27.205 27.6653 27.2827 27.97 26.554C28.1107 26.2195 28.3216 25.7716 28.2455 25.3296C28.1927 25.0609 27.9818 25.1325 27.7474 25.1564C27.4719 25.1803 27.3958 25.1863 27.1496 25.2878C26.5636 25.5028 26.4816 25.6223 26.0421 25.3535C26.0187 26.0224 26.5754 25.8074 26.9445 25.6163C27.3254 25.4192 27.5833 25.2042 28.1048 25.2579C28.1986 25.5506 28.0931 25.9806 27.9759 26.2136C27.8177 26.5361 27.6595 26.5719 27.2668 26.548C27.3606 26.7451 27.3723 26.9362 27.2375 27.1095C27.0969 27.2588 26.9621 27.3065 26.6984 27.3125C26.8449 27.4798 27.0149 27.4439 27.2024 27.4081C27.302 27.3902 27.4016 27.3663 27.5071 27.3782C27.5481 27.6828 27.4192 27.856 27.3137 28.0591C27.261 28.1547 27.3137 28.6086 27.2258 28.8415C27.0969 29.2178 26.6926 29.6956 26.3878 29.815C26.2179 29.5224 26.1417 29.2297 26.4406 29.0565C26.6984 28.9132 27.0559 28.5488 27.0149 28.2024C27.0031 28.083 26.9621 28.0053 26.8742 27.9396C26.8859 28.8057 25.8546 28.8296 25.7667 29.1521C25.7374 29.2715 25.7667 29.4328 25.796 29.5522C25.9132 29.9225 26.2531 30.4422 25.8194 30.9379C25.4268 31.4037 24.3954 30.9677 24.706 30.687C24.8877 30.5258 25.292 30.6452 25.2451 30.3287C25.1279 30.3585 25.2041 30.4362 25.0342 30.4063C25.0342 30.3944 25.0459 30.3824 25.0459 30.3824C25.0459 30.3944 25.0576 30.3705 25.0576 30.3705C25.1631 30.2749 25.2568 30.2391 25.333 30.1077C25.4268 29.9464 25.3213 29.7852 25.1631 29.7852C25.1865 29.8927 25.2158 29.8389 25.2686 29.9464C25.1924 30.0241 25.0576 30.042 24.958 30.0539C24.6826 30.1196 24.1317 30.1077 23.9383 29.9464C23.9676 29.827 24.0262 29.8688 23.9911 29.7613C23.8856 29.7493 23.7567 29.9046 23.8856 30.0838C23.9735 30.1913 24.1493 30.269 24.1845 30.3347C24.038 30.4123 24.0555 30.3227 23.9383 30.2928C23.9501 30.6094 24.2255 30.4899 24.4189 30.6273C24.6298 30.7707 24.4833 31.1171 23.8211 31.0932C23.6629 31.0812 23.6278 31.0812 23.534 30.9618C23.2234 30.5736 23.323 30.0719 23.4402 29.6299C23.5164 29.3372 23.5985 29.2297 23.3875 29.0028C23.1882 28.7878 22.8659 28.6982 22.737 28.4174C22.6726 28.2562 22.7487 28.1785 22.5905 28.1128C22.5905 28.74 23.5281 29.2596 23.1121 29.7911C23.0828 29.821 23.0886 29.815 23.0593 29.833C22.9949 29.7434 22.9538 29.6597 22.8894 29.5941C22.696 29.3551 22.4616 29.1162 22.3385 28.8773C22.1686 28.5608 22.2741 28.3159 22.2331 28.1965C22.2096 28.1666 22.1041 28.0352 22.0514 27.9695C21.9869 27.8501 21.9576 27.7724 21.9576 27.6111C21.9752 27.5216 22.0221 27.5455 22.1393 27.5753C22.2331 27.5992 22.3737 27.6171 22.5729 27.5813C22.7663 27.5395 22.9128 27.4499 22.9656 27.2767C22.7429 27.3424 22.5202 27.3842 22.2741 27.2767C22.0104 27.1572 21.9752 27.0139 21.9987 26.6794C21.3189 26.6376 21.4478 25.7059 21.0552 25.3236C21.7057 24.8876 22.5612 25.6044 22.8191 25.6581C23.0183 25.6999 23.2351 25.5088 23.0945 25.2878C22.9363 25.3834 23.0652 25.4909 22.6257 25.3177C22.444 25.2281 22.2975 25.1445 22.1041 25.0788C21.9811 25.037 21.8463 25.019 21.7115 25.019C21.4127 25.037 21.1138 25.1206 20.9321 25.2579Z" fill="white"/>
</mask>
<g mask="url(#mask3_938_697)">
<path d="M28.3158 24.8994H20.9321V32.0008H28.3158V24.8994Z" fill="url(#paint3_radial_938_697)"/>
</g>
<mask id="mask4_938_697" style="mask-type:luminance" maskUnits="userSpaceOnUse" x="23" y="28" width="5" height="8">
<path d="M27.554 29.3253C27.3957 29.6299 27.0969 29.9763 26.7687 30.0957C26.6515 31.8397 24.8759 32.2638 24.3778 32.6938C23.6219 33.3448 24.0496 33.5479 23.7391 33.9301C23.4285 34.3184 23.2292 34.9276 23.5691 35.3277C23.7098 35.489 23.6863 35.5666 23.7918 35.716C23.909 35.8653 23.9735 35.8593 24.1317 35.9847H24.161C24.1317 35.7996 24.0321 35.8533 24.0203 35.6264C24.0086 35.3755 24.2137 34.9634 23.8621 34.9335C23.6805 34.9097 23.7039 35.0112 23.6394 35.1605C23.4461 35.0112 23.5633 34.4975 23.9559 34.2168C24.1141 34.1213 24.243 34.0735 24.3895 33.954C24.5829 33.8047 24.5477 33.7689 24.6767 33.53C24.9404 33.53 25.04 33.6375 25.3154 33.5957C25.5381 33.5658 25.708 33.4882 25.8545 33.3807C25.9952 33.2732 26.1124 33.1298 26.1534 32.9267C26.2061 32.6759 26.0889 32.5385 25.8428 32.5803C25.8428 32.6759 25.9073 32.7655 25.8545 32.8849C25.7491 33.082 25.251 33.2314 24.9814 33.082C24.9169 32.8312 24.9931 32.7356 25.1396 32.6401C25.5733 32.3594 26.4581 32.3594 26.9445 31.3201C27.1379 30.908 27.1027 30.7587 27.1027 30.3048C27.2082 30.1973 27.2434 30.2092 27.3254 30.1017C27.4133 30.0061 27.4543 29.9823 27.5247 29.8867C27.9583 29.3014 28.1282 28.74 27.8001 28.0591C27.7649 28.6325 27.8177 28.8295 27.554 29.3253Z" fill="white"/>
</mask>
<g mask="url(#mask4_938_697)">
<path d="M28.1458 28.0474H23.2292V35.9849H28.1458V28.0474Z" fill="url(#paint4_radial_938_697)"/>
</g>
<mask id="mask5_938_697" style="mask-type:luminance" maskUnits="userSpaceOnUse" x="27" y="26" width="3" height="6">
<path d="M28.5736 27.4858C28.8373 28.4295 28.9369 29.1641 28.3919 29.9525C28.2337 30.2033 27.8704 30.6453 27.6829 30.7528C27.7356 31.1231 27.9173 31.2485 27.9055 31.7622C28.2747 31.6308 28.1282 30.8305 28.6791 30.4542C28.9018 30.2929 29.019 30.3228 29.2944 30.0182C29.9624 29.2835 29.476 28.4175 29.06 27.7546C28.7318 27.2349 28.3685 26.8228 28.5384 26.3032C28.181 26.5003 28.4329 27.008 28.5736 27.4858Z" fill="white"/>
</mask>
<g mask="url(#mask5_938_697)">
<path d="M29.9621 26.3096H27.6766V31.7685H29.9621V26.3096Z" fill="url(#paint5_radial_938_697)"/>
</g>
<mask id="mask6_938_697" style="mask-type:luminance" maskUnits="userSpaceOnUse" x="25" y="23" width="3" height="3">
<path d="M25.6846 23.8905C25.8956 23.4008 26.8976 24.4221 26.9387 24.6371C26.8449 24.7326 26.7277 24.7745 26.5988 24.7745C26.13 24.7745 25.5323 24.2429 25.6846 23.8905ZM25.7256 23.5023C25.5147 23.5859 25.2803 23.9383 25.2803 24.2608C25.2803 24.7685 25.7139 24.8222 26.0538 25.0492C26.4992 25.3419 26.0538 25.4494 26.9797 25.091C27.1496 25.0253 27.6184 25.0372 27.7122 24.9596C27.6829 24.87 27.636 24.882 27.554 24.8402C27.4719 24.8103 27.4485 24.7864 27.3723 24.7326C27.2551 24.6431 27.1731 24.5475 27.0617 24.4519C26.8625 24.2369 26.9855 24.2369 26.4757 23.8368C26.3644 23.7531 26.0186 23.4844 25.8018 23.4844C25.7725 23.4903 25.7491 23.4903 25.7256 23.5023Z" fill="white"/>
</mask>
<g mask="url(#mask6_938_697)">
<path d="M27.7122 23.4067H25.2803V25.4553H27.7122V23.4067Z" fill="url(#paint6_radial_938_697)"/>
</g>
<mask id="mask7_938_697" style="mask-type:luminance" maskUnits="userSpaceOnUse" x="21" y="29" width="3" height="4">
<path d="M22.0455 29.8569C22.0338 30.2033 21.899 30.4661 22.151 30.926C22.362 31.3142 22.7663 31.6726 23.2468 31.792C23.4168 31.8219 23.8622 31.8876 23.786 32.2041C23.7567 32.3355 23.6922 32.3116 23.5867 32.3535C23.745 32.4729 23.9676 32.3773 23.9794 32.1803C23.9911 31.9175 23.5106 31.6905 23.2703 31.4994C22.6726 31.0096 22.7194 30.3407 22.6198 30.0361C22.5261 29.7434 22.5261 29.7733 22.3561 29.6001C22.2624 29.5105 22.11 29.2955 21.9928 29.2656C21.9928 29.4448 22.0455 29.618 22.0455 29.8569Z" fill="white"/>
</mask>
<g mask="url(#mask7_938_697)">
<path d="M23.9911 29.2715H21.899V32.4788H23.9911V29.2715Z" fill="url(#paint7_radial_938_697)"/>
</g>
<mask id="mask8_938_697" style="mask-type:luminance" maskUnits="userSpaceOnUse" x="23" y="22" width="4" height="4">
<path d="M25.9366 22.7197C26.0128 22.8153 26.0421 22.8153 26.0303 22.9586C25.8369 23.0661 25.1162 22.9825 24.1844 23.6515C23.9617 23.8127 23.6453 24.0755 23.5281 24.2905C23.4402 24.4757 23.2409 25.0908 23.2702 25.3059C23.5691 25.3178 23.868 24.8161 23.9735 24.5892C24.6767 23.1498 25.919 23.2692 26.1007 23.1617C26.294 23.0422 26.2179 22.8571 26.0596 22.7197H25.9366Z" fill="white"/>
</mask>
<g mask="url(#mask8_938_697)">
<path d="M26.2882 22.7197H23.241V25.3178H26.2882V22.7197Z" fill="url(#paint8_radial_938_697)"/>
</g>
<mask id="mask9_938_697" style="mask-type:luminance" maskUnits="userSpaceOnUse" x="25" y="31" width="3" height="5">
<path d="M26.8097 32.8252C26.628 32.9447 26.5636 32.9327 26.4288 33.088C25.8955 33.6375 26.7569 33.9003 26.5343 34.396C26.3116 34.396 26.3526 34.2467 26.2237 34.1691L26.1475 34.2467C26.2002 34.39 26.3057 34.408 26.3585 34.5692C26.3995 34.6887 26.3878 34.9156 26.2823 35.0052C26.1768 34.4856 25.8018 34.7006 25.8486 34.9216C25.8721 34.9993 25.9893 35.1187 26.0303 35.2382C26.1182 35.4353 26.042 35.5009 26.0713 35.6622C26.3292 35.6503 26.1885 35.2859 26.3585 35.1187C26.5284 34.9574 26.5167 34.8679 26.5284 34.6409C26.5401 34.4677 26.505 34.5871 26.5811 34.4916C26.7628 34.2288 26.6456 34.1153 26.5518 33.8525C26.3936 33.4285 27.0089 33.1597 27.2551 32.9327C27.7121 32.5206 27.9993 31.5889 27.4895 31.2007C27.9114 31.9353 27.2199 32.5684 26.8097 32.8252Z" fill="white"/>
</mask>
<g mask="url(#mask9_938_697)">
<path d="M27.9993 31.189H25.8076V35.6505H27.9993V31.189Z" fill="url(#paint9_radial_938_697)"/>
</g>
<mask id="mask10_938_697" style="mask-type:luminance" maskUnits="userSpaceOnUse" x="23" y="23" width="3" height="3">
<path d="M24.4364 24.219C24.2664 24.434 23.821 25.0193 23.95 25.3239C23.9793 25.3358 24.6004 25.1746 24.7997 25.1746C25.0341 25.1626 25.2275 25.1985 25.3857 25.2283C25.5498 25.2642 25.667 25.3 25.7256 25.2821C25.6845 25.1746 25.6377 25.1746 25.5322 25.1089C25.0634 24.8461 24.6825 24.5594 25.0224 23.9621C25.2157 23.6277 25.3095 23.6814 25.3388 23.5381C25.1161 23.5799 24.5477 24.0995 24.4364 24.219Z" fill="white"/>
</mask>
<g mask="url(#mask10_938_697)">
<path d="M25.7256 23.5322H23.821V25.33H25.7256V23.5322Z" fill="url(#paint10_radial_938_697)"/>
</g>
<mask id="mask11_938_697" style="mask-type:luminance" maskUnits="userSpaceOnUse" x="23" y="23" width="3" height="3">
<path d="M24.4364 24.219C24.2664 24.434 23.821 25.0193 23.95 25.3239C23.9793 25.3358 24.6004 25.1746 24.7997 25.1746C25.0341 25.1626 25.2275 25.1985 25.3857 25.2283C25.5498 25.2642 25.667 25.3 25.7256 25.2821C25.6845 25.1746 25.6377 25.1746 25.5322 25.1089C25.0634 24.8461 24.6825 24.5594 25.0224 23.9621C25.2157 23.6277 25.3095 23.6814 25.3388 23.5381C25.1161 23.5799 24.5477 24.0995 24.4364 24.219Z" fill="white"/>
</mask>
<g mask="url(#mask11_938_697)">
<path d="M25.7256 23.5322H23.821V25.33H25.7256V23.5322Z" fill="url(#paint11_radial_938_697)"/>
</g>
<mask id="mask12_938_697" style="mask-type:luminance" maskUnits="userSpaceOnUse" x="25" y="25" width="2" height="4">
<path d="M25.7374 27.0737C25.6084 27.3007 25.2686 27.6829 25.4268 28.0592C25.5205 28.0054 25.4561 28.0711 25.5088 27.9278C25.5381 27.8502 25.5381 27.8382 25.585 27.7785C25.8604 27.3365 26.3058 27.4082 26.4054 27.2887C26.2882 27.1932 26.171 27.2648 26.0011 27.1932C25.9483 26.9304 26.1476 26.8706 25.8956 26.2316C25.8428 26.1002 25.8428 26.0345 25.7139 25.9927C25.7432 26.2435 26.0421 26.5362 25.7374 27.0737Z" fill="white"/>
</mask>
<g mask="url(#mask12_938_697)">
<path d="M26.4054 25.9927H25.2686V28.0711H26.4054V25.9927Z" fill="url(#paint12_radial_938_697)"/>
</g>
<mask id="mask13_938_697" style="mask-type:luminance" maskUnits="userSpaceOnUse" x="23" y="26" width="2" height="3">
<path d="M23.6101 26.536C23.5222 26.8824 23.6629 27.0258 23.6336 27.2587C23.4929 27.3423 23.3757 27.2826 23.2527 27.3543C23.3171 27.4319 23.3699 27.408 23.4871 27.4498C23.5926 27.4916 23.657 27.5394 23.7215 27.5991C23.9559 27.8261 23.8914 27.9456 24.0204 28.0351C24.161 27.9157 24.1141 27.6768 24.0497 27.5275C23.9852 27.3782 23.9207 27.2468 23.8563 27.0736C23.8035 26.9242 23.7508 26.7033 23.7684 26.5301C23.7801 26.3031 23.909 26.2075 23.9266 26.0522C23.7684 26.0761 23.6629 26.3628 23.6101 26.536Z" fill="white"/>
</mask>
<g mask="url(#mask13_938_697)">
<path d="M24.1489 26.0586H23.2465V28.0415H24.1489V26.0586Z" fill="url(#paint13_radial_938_697)"/>
</g>
<mask id="mask14_938_697" style="mask-type:luminance" maskUnits="userSpaceOnUse" x="21" y="25" width="2" height="2">
<path d="M21.5826 25.4313C21.4888 25.5746 21.3833 25.6941 21.6763 25.9091C21.9342 26.1062 22.1568 25.8792 22.1861 26.2017C22.0455 26.369 21.9576 26.2913 21.8814 26.2196C21.8404 26.1778 21.7994 26.136 21.7642 26.136C21.7115 26.2316 21.7408 26.351 21.8052 26.4287C21.8697 26.4944 21.9752 26.5481 22.1158 26.5362C22.3385 26.5362 22.5436 26.3391 22.4792 26.1002C22.362 25.6343 21.7877 25.9927 21.7056 25.6463C21.6822 25.5567 21.6822 25.5567 21.7466 25.5388C21.7759 25.5268 21.8052 25.5328 21.8287 25.5328C21.8521 25.5328 21.8697 25.5388 21.8873 25.5268C21.858 25.4611 21.9107 25.4731 21.7935 25.4372C21.7642 25.4253 21.7291 25.4253 21.6939 25.4253C21.647 25.4253 21.6119 25.4313 21.5826 25.4313Z" fill="white"/>
</mask>
<g mask="url(#mask14_938_697)">
<path d="M22.5377 25.4253H21.3774V26.5422H22.5377V25.4253Z" fill="url(#paint14_radial_938_697)"/>
</g>
<mask id="mask15_938_697" style="mask-type:luminance" maskUnits="userSpaceOnUse" x="26" y="25" width="2" height="2">
<path d="M27.6887 25.3419C27.7415 25.4733 27.7415 25.3837 27.8059 25.4912C27.6653 25.8675 26.9797 25.5569 26.9855 26.0228C26.9972 26.3811 27.7415 26.5304 27.7532 26.0884C27.6477 26.1123 27.5071 26.2497 27.384 26.1422C27.173 25.9391 27.7356 25.8914 27.8528 25.8077C28.0696 25.6405 27.9407 25.312 27.7766 25.312C27.7473 25.312 27.718 25.324 27.6887 25.3419Z" fill="white"/>
</mask>
<g mask="url(#mask15_938_697)">
<path d="M28.069 25.312H26.979V26.5304H28.069V25.312Z" fill="url(#paint15_radial_938_697)"/>
</g>
<mask id="mask16_938_697" style="mask-type:luminance" maskUnits="userSpaceOnUse" x="25" y="27" width="2" height="2">
<path d="M26.0773 28.0173C26.2238 27.9397 26.3117 27.9636 26.4816 27.9636C26.3644 28.2323 26.0362 28.298 25.7081 28.3339C25.7374 28.1846 25.7843 28.1905 25.8546 28.083C25.9835 28.1368 25.9425 28.2801 26.13 28.1786C26.1241 28.0711 26.1066 28.089 26.089 28.1009C26.0831 28.1069 26.0773 28.1129 26.0773 28.1129C26.0655 28.1129 26.0655 28.095 26.0773 28.0173ZM25.5323 28.6325C25.626 28.6206 25.6495 28.5131 25.7901 28.4593C25.919 28.4055 26.0538 28.4175 26.1827 28.3817C26.382 28.3279 26.5871 28.1009 26.6398 27.8859C26.5637 27.862 26.4699 27.8501 26.3703 27.8501C25.9542 27.8501 25.4327 28.0771 25.5323 28.6325Z" fill="white"/>
</mask>
<g mask="url(#mask16_938_697)">
<path d="M26.6398 27.8501H25.4326V28.6385H26.6398V27.8501Z" fill="url(#paint16_radial_938_697)"/>
</g>
<mask id="mask17_938_697" style="mask-type:luminance" maskUnits="userSpaceOnUse" x="22" y="27" width="2" height="2">
<path d="M23.282 28.2443C23.1355 28.1786 23.0594 28.1129 23.0183 27.9516C23.3817 27.9397 23.1883 28.0472 23.3582 28.1786C23.4637 28.1248 23.4461 28.1248 23.3817 28.0292C23.3699 28.0053 23.3582 28.0292 23.3524 27.9635C23.5868 28.0173 23.7157 28.1248 23.7567 28.3757C23.6336 28.3637 23.3875 28.2861 23.282 28.2443ZM22.8425 27.8321C22.8542 28.0472 23.0418 28.2741 23.1824 28.3518C23.2996 28.4175 23.4051 28.3936 23.5457 28.4175C23.704 28.4473 23.7391 28.513 23.9091 28.5489C23.7977 27.9576 23.5868 27.8262 23.0711 27.8262C23.0008 27.8262 22.9246 27.8321 22.8425 27.8321Z" fill="white"/>
</mask>
<g mask="url(#mask17_938_697)">
<path d="M23.9032 27.8262H22.8425V28.5489H23.9032V27.8262Z" fill="url(#paint17_radial_938_697)"/>
</g>
<mask id="mask18_938_697" style="mask-type:luminance" maskUnits="userSpaceOnUse" x="24" y="34" width="3" height="2">
<path d="M25.0459 34.5933C25.1748 34.6352 25.2393 34.6232 25.333 34.7427C25.6495 35.1428 25.2686 35.7699 25.0869 35.5788C25.0107 35.4056 25.2041 35.1428 25.1279 34.9517C24.9873 34.8024 24.7646 34.9218 24.7119 35.0592C24.6474 35.2742 24.7646 35.4594 24.7763 35.6206C24.6474 35.6087 24.5419 35.5788 24.4599 35.5131C24.3954 34.7427 24.5244 34.8502 24.6298 34.6352C24.4071 34.6232 24.4716 34.677 24.331 34.6889C24.2724 34.6949 24.2313 34.6889 24.202 34.6829C24.1493 34.671 24.1141 34.665 24.0145 34.7188L24.12 34.7606C24.2255 34.8143 24.2665 34.8502 24.2899 34.9995C24.3134 35.1189 24.3134 35.4116 24.3017 35.543L24.079 35.6386C24.1493 35.6923 24.1845 35.6744 24.2431 35.6565C24.29 35.6385 24.3427 35.6266 24.4423 35.6505C24.6416 35.6923 24.583 35.7341 24.8349 35.6744C24.876 35.7819 24.9404 35.8715 25.0283 35.9252L25.0693 35.6863C25.2803 35.764 25.3975 35.5788 25.5499 35.5131C25.6964 35.4474 26.1007 35.5669 26.0187 35.3399H25.9542C25.8253 35.3638 25.6436 35.4355 25.5499 35.0771C25.4444 34.665 25.6905 34.5814 25.7198 34.4918C25.7139 34.4918 25.7022 34.4858 25.6846 34.4858C25.5381 34.4918 25.0986 34.5635 25.0459 34.5933Z" fill="white"/>
</mask>
<g mask="url(#mask18_938_697)">
<path d="M26.0948 34.4922H24.0145V35.9256H26.0948V34.4922Z" fill="url(#paint18_radial_938_697)"/>
</g>
<defs>
<linearGradient id="paint0_linear_938_697" x1="3.49632" y1="25.5007" x2="47.5072" y2="25.5007" gradientUnits="userSpaceOnUse">
<stop stop-color="#FFFFBF"/>
<stop offset="0.2279" stop-color="#DFB665"/>
<stop offset="0.414" stop-color="#ECC371"/>
<stop offset="0.586" stop-color="#DFB665"/>
<stop offset="0.7721" stop-color="#FFFFBB"/>
<stop offset="1" stop-color="#B8A05F"/>
</linearGradient>
<radialGradient id="paint1_radial_938_697" cx="0" cy="0" r="1" gradientUnits="userSpaceOnUse" gradientTransform="translate(42.1409 30.9107) scale(26.4573 26.9654)">
<stop stop-color="#FFFFBF"/>
<stop offset="0.2279" stop-color="#DFB665"/>
<stop offset="0.414" stop-color="#ECC371"/>
<stop offset="0.586" stop-color="#DFB665"/>
<stop offset="0.7721" stop-color="#FFFFBB"/>
<stop offset="1" stop-color="#B8A05F"/>
</radialGradient>
<radialGradient id="paint2_radial_938_697" cx="0" cy="0" r="1" gradientUnits="userSpaceOnUse" gradientTransform="translate(42.1415 30.3997) scale(26.844 27.3595)">
<stop stop-color="#FFFFBF"/>
<stop offset="0.2279" stop-color="#DFB665"/>
<stop offset="0.414" stop-color="#ECC371"/>
<stop offset="0.586" stop-color="#DFB665"/>
<stop offset="0.7721" stop-color="#FFFFBB"/>
<stop offset="1" stop-color="#B8A05F"/>
</radialGradient>
<radialGradient id="paint3_radial_938_697" cx="0" cy="0" r="1" gradientUnits="userSpaceOnUse" gradientTransform="translate(28.0031 29.8174) scale(9.39188 9.57226)">
<stop stop-color="#FFFFBF"/>
<stop offset="0.2279" stop-color="#DFB665"/>
<stop offset="0.414" stop-color="#ECC371"/>
<stop offset="0.5825" stop-color="#DFB665"/>
<stop offset="0.7721" stop-color="#FFFFBB"/>
<stop offset="1" stop-color="#B8A05F"/>
</radialGradient>
<radialGradient id="paint4_radial_938_697" cx="0" cy="0" r="1" gradientUnits="userSpaceOnUse" gradientTransform="translate(28.0031 29.8177) scale(9.39188 9.57226)">
<stop stop-color="#FFFFBF"/>
<stop offset="0.2279" stop-color="#DFB665"/>
<stop offset="0.414" stop-color="#ECC371"/>
<stop offset="0.5825" stop-color="#DFB665"/>
<stop offset="0.7721" stop-color="#FFFFBB"/>
<stop offset="1" stop-color="#B8A05F"/>
</radialGradient>
<radialGradient id="paint5_radial_938_697" cx="0" cy="0" r="1" gradientUnits="userSpaceOnUse" gradientTransform="translate(28.0027 29.818) scale(9.39188 9.57226)">
<stop stop-color="#FFFFBF"/>
<stop offset="0.2279" stop-color="#DFB665"/>
<stop offset="0.414" stop-color="#ECC371"/>
<stop offset="0.5825" stop-color="#DFB665"/>
<stop offset="0.7721" stop-color="#FFFFBB"/>
<stop offset="1" stop-color="#B8A05F"/>
</radialGradient>
<radialGradient id="paint6_radial_938_697" cx="0" cy="0" r="1" gradientUnits="userSpaceOnUse" gradientTransform="translate(28.0031 29.8178) scale(9.39188 9.57226)">
<stop stop-color="#FFFFBF"/>
<stop offset="0.2279" stop-color="#DFB665"/>
<stop offset="0.414" stop-color="#ECC371"/>
<stop offset="0.5825" stop-color="#DFB665"/>
<stop offset="0.7721" stop-color="#FFFFBB"/>
<stop offset="1" stop-color="#B8A05F"/>
</radialGradient>
<radialGradient id="paint7_radial_938_697" cx="0" cy="0" r="1" gradientUnits="userSpaceOnUse" gradientTransform="translate(28.0031 29.8175) scale(9.39187 9.57225)">
<stop stop-color="#FFFFBF"/>
<stop offset="0.2279" stop-color="#DFB665"/>
<stop offset="0.414" stop-color="#ECC371"/>
<stop offset="0.5825" stop-color="#DFB665"/>
<stop offset="0.7721" stop-color="#FFFFBB"/>
<stop offset="1" stop-color="#B8A05F"/>
</radialGradient>
<radialGradient id="paint8_radial_938_697" cx="0" cy="0" r="1" gradientUnits="userSpaceOnUse" gradientTransform="translate(28.0031 29.8177) scale(9.39188 9.57226)">
<stop stop-color="#FFFFBF"/>
<stop offset="0.2279" stop-color="#DFB665"/>
<stop offset="0.414" stop-color="#ECC371"/>
<stop offset="0.5825" stop-color="#DFB665"/>
<stop offset="0.7721" stop-color="#FFFFBB"/>
<stop offset="1" stop-color="#B8A05F"/>
</radialGradient>
<radialGradient id="paint9_radial_938_697" cx="0" cy="0" r="1" gradientUnits="userSpaceOnUse" gradientTransform="translate(28.003 29.8178) scale(9.39188 9.57226)">
<stop stop-color="#FFFFBF"/>
<stop offset="0.2279" stop-color="#DFB665"/>
<stop offset="0.414" stop-color="#ECC371"/>
<stop offset="0.5825" stop-color="#DFB665"/>
<stop offset="0.7721" stop-color="#FFFFBB"/>
<stop offset="1" stop-color="#B8A05F"/>
</radialGradient>
<radialGradient id="paint10_radial_938_697" cx="0" cy="0" r="1" gradientUnits="userSpaceOnUse" gradientTransform="translate(24.8258 24.4274) scale(0.887715 0.904765)">
<stop stop-color="#FFFFBF"/>
<stop offset="0.2279" stop-color="#B19B5D"/>
<stop offset="0.414" stop-color="#ECC371"/>
<stop offset="0.586" stop-color="#DFB665"/>
<stop offset="0.7721" stop-color="#FFFFBB"/>
<stop offset="1" stop-color="#B8A05F"/>
</radialGradient>
<radialGradient id="paint11_radial_938_697" cx="0" cy="0" r="1" gradientUnits="userSpaceOnUse" gradientTransform="translate(28.003 29.8179) scale(9.39188 9.57226)">
<stop stop-color="#FFFFBF"/>
<stop offset="0.2279" stop-color="#DFB665"/>
<stop offset="0.414" stop-color="#ECC371"/>
<stop offset="0.5825" stop-color="#DFB665"/>
<stop offset="0.7721" stop-color="#FFFFBB"/>
<stop offset="1" stop-color="#B8A05F"/>
</radialGradient>
<radialGradient id="paint12_radial_938_697" cx="0" cy="0" r="1" gradientUnits="userSpaceOnUse" gradientTransform="translate(28.0031 29.8176) scale(9.39187 9.57225)">
<stop stop-color="#FFFFBF"/>
<stop offset="0.2279" stop-color="#DFB665"/>
<stop offset="0.414" stop-color="#ECC371"/>
<stop offset="0.5825" stop-color="#DFB665"/>
<stop offset="0.7721" stop-color="#FFFFBB"/>
<stop offset="1" stop-color="#B8A05F"/>
</radialGradient>
<radialGradient id="paint13_radial_938_697" cx="0" cy="0" r="1" gradientUnits="userSpaceOnUse" gradientTransform="translate(28.0027 29.8179) scale(9.39187 9.57226)">
<stop stop-color="#FFFFBF"/>
<stop offset="0.2279" stop-color="#DFB665"/>
<stop offset="0.414" stop-color="#ECC371"/>
<stop offset="0.5825" stop-color="#DFB665"/>
<stop offset="0.7721" stop-color="#FFFFBB"/>
<stop offset="1" stop-color="#B8A05F"/>
</radialGradient>
<radialGradient id="paint14_radial_938_697" cx="0" cy="0" r="1" gradientUnits="userSpaceOnUse" gradientTransform="translate(28.0031 29.8176) scale(9.39188 9.57225)">
<stop stop-color="#FFFFBF"/>
<stop offset="0.2279" stop-color="#DFB665"/>
<stop offset="0.414" stop-color="#ECC371"/>
<stop offset="0.5825" stop-color="#DFB665"/>
<stop offset="0.7721" stop-color="#FFFFBB"/>
<stop offset="1" stop-color="#B8A05F"/>
</radialGradient>
<radialGradient id="paint15_radial_938_697" cx="0" cy="0" r="1" gradientUnits="userSpaceOnUse" gradientTransform="translate(28.0024 29.8179) scale(9.39188 9.57227)">
<stop stop-color="#FFFFBF"/>
<stop offset="0.2279" stop-color="#DFB665"/>
<stop offset="0.414" stop-color="#ECC371"/>
<stop offset="0.5825" stop-color="#DFB665"/>
<stop offset="0.7721" stop-color="#FFFFBB"/>
<stop offset="1" stop-color="#B8A05F"/>
</radialGradient>
<radialGradient id="paint16_radial_938_697" cx="0" cy="0" r="1" gradientUnits="userSpaceOnUse" gradientTransform="translate(28.0031 29.8176) scale(9.39188 9.57226)">
<stop stop-color="#FFFFBF"/>
<stop offset="0.2279" stop-color="#DFB665"/>
<stop offset="0.414" stop-color="#ECC371"/>
<stop offset="0.5825" stop-color="#DFB665"/>
<stop offset="0.7721" stop-color="#FFFFBB"/>
<stop offset="1" stop-color="#B8A05F"/>
</radialGradient>
<radialGradient id="paint17_radial_938_697" cx="0" cy="0" r="1" gradientUnits="userSpaceOnUse" gradientTransform="translate(28.0031 29.8175) scale(9.39188 9.57226)">
<stop stop-color="#FFFFBF"/>
<stop offset="0.2279" stop-color="#DFB665"/>
<stop offset="0.414" stop-color="#ECC371"/>
<stop offset="0.5825" stop-color="#DFB665"/>
<stop offset="0.7721" stop-color="#FFFFBB"/>
<stop offset="1" stop-color="#B8A05F"/>
</radialGradient>
<radialGradient id="paint18_radial_938_697" cx="0" cy="0" r="1" gradientUnits="userSpaceOnUse" gradientTransform="translate(28.0031 29.8181) scale(9.39188 9.57226)">
<stop stop-color="#FFFFBF"/>
<stop offset="0.2279" stop-color="#DFB665"/>
<stop offset="0.414" stop-color="#ECC371"/>
<stop offset="0.5825" stop-color="#DFB665"/>
<stop offset="0.7721" stop-color="#FFFFBB"/>
<stop offset="1" stop-color="#B8A05F"/>
</radialGradient>
</defs>
</svg>
